# xmcd
#
# Track frame offsets:
# 150
# 13322
# 27871
# 41618
# 61110
# 75998
# 94984
# 112820
# 132067
# 154351
# 168128
# 188051
#
# Disc length: 2777 seconds
#
#
# Revision: 0
# Processed by: cddbd v1.5.2PL0 Copyright (c) Steve Scherf et al.
# Submitted via: FreeRIP 2.96 
#
DISCID=890ad70c
DTITLE=MAROON5 - SONGS ABOUT JANE
DYEAR=1900
DGENRE=BritPop
TTITLE0=harder to breathe
TTITLE1=this love
TTITLE2=shiver
TTITLE3=she will be loved
TTITLE4=tangled
TTITLE5=the sun
TTITLE6=must get out
TTITLE7=sunday morning
TTITLE8=secret
TTITLE9=through with you
TTITLE10=not coming home
TTITLE11=sweetest goodbye
EXTD=
EXTT0=
EXTT1=
EXTT2=
EXTT3=
EXTT4=
EXTT5=
EXTT6=
EXTT7=
EXTT8=
EXTT9=
EXTT10=
EXTT11=
PLAYORDER=
